<svg width="48" height="48" viewBox="0 0 48 48" fill="none" xmlns="http://www.w3.org/2000/svg">
<path d="M11.3628 33.0266H9.57523C8.62702 33.0266 7.71764 32.6499 7.04716 31.9794C6.37667 31.3089 6 30.3996 6 29.4514V11.5752C6 10.627 6.37667 9.71764 7.04716 9.04716C7.71764 8.37667 8.62702 8 9.57523 8H38.177C39.1253 8 40.0346 8.37667 40.7051 9.04716C41.3756 9.71764 41.7523 10.627 41.7523 11.5752V29.4514C41.7523 30.3996 41.3756 31.3089 40.7051 31.9794C40.0346 32.6499 39.1253 33.0266 38.177 33.0266H36.3894" stroke="#FB0007" stroke-width="3" stroke-linecap="round" stroke-linejoin="round"/>
<path d="M23.8769 29.4512L32.815 40.1769H14.9389L23.8769 29.4512Z" stroke="#FB0007" stroke-width="3" stroke-linecap="round" stroke-linejoin="round"/>
</svg>
