<svg width="24" height="24" viewBox="0 0 24 24" fill="none" xmlns="http://www.w3.org/2000/svg">
<path d="M6.66667 5.51743L4.75871 7.42538C4.58515 7.59895 4.30374 7.59895 4.13017 7.42538C3.95661 7.25181 3.95661 6.97041 4.13017 6.79684L6.79684 4.13017C6.97041 3.95661 7.25181 3.95661 7.42538 4.13017L10.092 6.79684C10.2656 6.97041 10.2656 7.25181 10.092 7.42538C9.91848 7.59895 9.63707 7.59895 9.46351 7.42538L7.55556 5.51743V18.4826L9.46351 16.5746C9.63707 16.4011 9.91848 16.4011 10.092 16.5746C10.2656 16.7482 10.2656 17.0296 10.092 17.2032L7.42538 19.8698C7.25181 20.0434 6.97041 20.0434 6.79684 19.8698L4.13017 17.2032C3.95661 17.0296 3.95661 16.7482 4.13017 16.5746C4.30374 16.4011 4.58515 16.4011 4.75871 16.5746L6.66667 18.4826V5.51743ZM17.7778 4C19.0051 4 20 4.99492 20 6.22222V17.7778C20 19.0051 19.0051 20 17.7778 20H15.1111C13.8838 20 12.8889 19.0051 12.8889 17.7778V6.22222C12.8889 4.99492 13.8838 4 15.1111 4H17.7778ZM17.7778 4.88889H15.1111C14.3747 4.88889 13.7778 5.48584 13.7778 6.22222V17.7778C13.7778 18.5142 14.3747 19.1111 15.1111 19.1111H17.7778C18.5142 19.1111 19.1111 18.5142 19.1111 17.7778V6.22222C19.1111 5.48584 18.5142 4.88889 17.7778 4.88889Z" fill="#FB0007"/>
</svg>
