<svg width="48" height="48" viewBox="0 0 48 48" fill="none" xmlns="http://www.w3.org/2000/svg">
<path d="M40.177 31.0229V16.722C40.1764 16.0951 40.0109 15.4793 39.6971 14.9365C39.3834 14.3937 38.9324 13.9429 38.3894 13.6294L25.8761 6.47899C25.3326 6.1652 24.7161 6 24.0885 6C23.4609 6 22.8444 6.1652 22.3009 6.47899L9.78761 13.6294C9.24465 13.9429 8.79366 14.3937 8.47991 14.9365C8.16615 15.4793 8.00064 16.0951 8 16.722V31.0229C8.00064 31.6499 8.16615 32.2657 8.47991 32.8085C8.79366 33.3513 9.24465 33.802 9.78761 34.1155L22.3009 41.2659C22.8444 41.5797 23.4609 41.7449 24.0885 41.7449C24.7161 41.7449 25.3326 41.5797 25.8761 41.2659L38.3894 34.1155C38.9324 33.802 39.3834 33.3513 39.6971 32.8085C40.0109 32.2657 40.1764 31.6499 40.177 31.0229Z" stroke="#FB0007" stroke-width="3" stroke-linecap="round" stroke-linejoin="round"/>
<path d="M8.48206 14.863L24.0879 23.8905L39.6938 14.863" stroke="#FB0007" stroke-width="3" stroke-linecap="round" stroke-linejoin="round"/>
<path d="M24.0889 41.8918V23.8727" stroke="#FB0007" stroke-width="3" stroke-linecap="round" stroke-linejoin="round"/>
</svg>
