<svg width="24" height="24" viewBox="0 0 24 24" fill="none" xmlns="http://www.w3.org/2000/svg">
<path d="M18.1667 21C19.7315 21 21 19.7315 21 18.1666C21 16.6018 19.7315 15.3333 18.1667 15.3333C16.6019 15.3333 15.3334 16.6018 15.3334 18.1666C15.3334 19.7315 16.6019 21 18.1667 21Z" stroke="#FB0007" stroke-linecap="round" stroke-linejoin="round"/>
<path d="M6.83333 9.66667C8.39814 9.66667 9.66667 8.39814 9.66667 6.83333C9.66667 5.26853 8.39814 4 6.83333 4C5.26853 4 4 5.26853 4 6.83333C4 8.39814 5.26853 9.66667 6.83333 9.66667Z" stroke="#FB0007" stroke-linecap="round" stroke-linejoin="round"/>
<path d="M13.4445 6.83331H16.2778C16.7788 6.83331 17.2592 7.03232 17.6134 7.38656C17.9677 7.74079 18.1667 8.22124 18.1667 8.7222V15.3333" stroke="#FB0007" stroke-linecap="round" stroke-linejoin="round"/>
<path d="M6.83337 9.66669V21" stroke="#FB0007" stroke-linecap="round" stroke-linejoin="round"/>
</svg>
