<svg width="30" height="30" viewBox="0 0 30 30" fill="none" xmlns="http://www.w3.org/2000/svg">
<rect width="30.0027" height="30" rx="4" fill="#F9F9F9"/>
<path d="M15.7466 8C16.9872 8.00247 17.2548 8.01298 17.89 8.04208C18.6358 8.07623 19.1452 8.19293 19.5892 8.36655C20.0503 8.54586 20.4403 8.78494 20.8302 9.17488C21.2173 9.56196 21.4564 9.95474 21.6357 10.413C21.8065 10.857 21.926 11.3665 21.9602 12.1122C21.9918 12.8027 22.0014 13.0588 22.0027 14.6022V15.3943C22.0014 16.9378 21.9918 17.1939 21.9602 17.8843C21.926 18.6301 21.8093 19.1395 21.6357 19.5835C21.4564 20.0446 21.2173 20.4346 20.8274 20.8245C20.4374 21.2144 20.0475 21.4535 19.5864 21.6328C19.1424 21.8036 18.6329 21.9232 17.8872 21.9573C17.1415 21.9915 16.9024 22 15.0011 22L14.7966 22C13.0814 21.9993 12.8331 21.9902 12.115 21.9573C11.3693 21.9232 10.8598 21.8065 10.4158 21.6328C9.95474 21.4535 9.56481 21.2144 9.17488 20.8245C8.78494 20.4346 8.54586 20.0446 8.36655 19.5835C8.19577 19.1395 8.07623 18.6301 8.04207 17.8843C8.01298 17.2491 8.00247 16.9815 8 15.7409V14.2556C8.00247 13.015 8.01298 12.7474 8.04207 12.1122C8.07623 11.3665 8.19293 10.857 8.36655 10.413C8.54586 9.95474 8.78494 9.56196 9.17488 9.17488C9.56481 8.78494 9.95474 8.54586 10.4158 8.36655C10.8598 8.19293 11.3693 8.07338 12.1179 8.04208C12.7531 8.01298 13.0207 8.00247 14.2613 8H15.7466ZM15.2022 9.26029H14.8C13.114 9.26072 12.8818 9.26722 12.172 9.30011C11.4889 9.33142 11.1189 9.44527 10.8712 9.54204C10.5439 9.67012 10.3105 9.82097 10.0657 10.0657C9.82097 10.3105 9.67012 10.5439 9.54204 10.8712C9.44527 11.1189 9.33142 11.4889 9.30011 12.172C9.2688 12.9091 9.26026 13.1311 9.26026 15.0011C9.26026 16.8711 9.26595 17.0931 9.30011 17.8303C9.33142 18.5134 9.44527 18.8834 9.54204 19.131C9.67012 19.4583 9.82097 19.6917 10.0657 19.9365C10.3105 20.1813 10.5439 20.3321 10.8712 20.4602C11.1189 20.557 11.4889 20.6708 12.172 20.7021C12.9091 20.7334 13.1311 20.742 15.0011 20.742L15.2022 20.7419C16.8882 20.7415 17.1204 20.735 17.8303 20.7021C18.5134 20.6708 18.8834 20.557 19.131 20.4602C19.4583 20.3321 19.6917 20.1813 19.9365 19.9365C20.1813 19.6917 20.3321 19.4583 20.4602 19.131C20.557 18.8834 20.6708 18.5134 20.7021 17.8303C20.7334 17.0931 20.742 16.8711 20.742 15.0011L20.7419 14.8C20.7415 13.114 20.735 12.8818 20.7021 12.172C20.6708 11.4889 20.557 11.1189 20.4602 10.8712C20.3321 10.5439 20.1813 10.3105 19.9365 10.0657C19.6917 9.82097 19.4583 9.67012 19.131 9.54204C18.8834 9.44527 18.5134 9.33142 17.8303 9.30011C17.0931 9.26596 16.8711 9.26026 15.0011 9.26026L15.2022 9.26029ZM15.0011 11.4063C16.9878 11.4063 18.5959 13.0173 18.5959 15.0011C18.5959 16.9849 16.9849 18.5959 15.0011 18.5959C13.0173 18.5959 11.4063 16.9878 11.4063 15.0011C11.4063 13.0144 13.0144 11.4063 15.0011 11.4063ZM15.0011 12.6672C13.7118 12.6672 12.6672 13.7118 12.6672 15.0011C12.6672 16.2905 13.7118 17.335 15.0011 17.335C16.2905 17.335 17.335 16.2905 17.335 15.0011C17.335 13.7118 16.2905 12.6672 15.0011 12.6672ZM18.7411 10.4244C19.2048 10.4244 19.5807 10.8003 19.5807 11.264C19.5807 11.7277 19.2048 12.1036 18.7411 12.1036C18.2773 12.1036 17.9014 11.7277 17.9014 11.264C17.9014 10.8003 18.2773 10.4244 18.7411 10.4244Z" fill="#ADAFB1"/>
</svg>
