<svg width="22" height="22" viewBox="0 0 22 22" fill="none" xmlns="http://www.w3.org/2000/svg">
<path d="M12.1688 0C14.1184 0.00388844 14.5389 0.020398 15.5371 0.0661184C16.7089 0.11979 17.5095 0.303169 18.2073 0.576001C18.9318 0.857778 19.5446 1.23348 20.1573 1.84623C20.7656 2.45451 21.1413 3.07174 21.4231 3.79184C21.6915 4.48957 21.8793 5.29017 21.933 6.46201C21.9827 7.54704 21.9979 7.94952 21.9999 10.3749V11.6196C21.9979 14.045 21.9827 14.4475 21.933 15.5325C21.8793 16.7044 21.6959 17.505 21.4231 18.2027C21.1413 18.9273 20.7656 19.54 20.1529 20.1528C19.5401 20.7655 18.9274 21.1413 18.2028 21.423C17.5051 21.6914 16.7045 21.8792 15.5326 21.9329C14.3608 21.9866 13.9851 22 10.9974 22L10.676 21.9999C7.98071 21.999 7.59052 21.9846 6.46209 21.9329C5.29025 21.8792 4.48965 21.6959 3.79191 21.423C3.06734 21.1413 2.45459 20.7655 1.84184 20.1528C1.22909 19.54 0.853383 18.9273 0.571606 18.2027C0.303247 17.505 0.115392 16.7044 0.0617196 15.5325C0.0159993 14.5343 -0.000506093 14.1138 -0.00439453 12.1643V9.8303C-0.000506093 7.88075 0.0159993 7.46024 0.0617196 6.46201C0.115392 5.29017 0.298775 4.48957 0.571606 3.79184C0.853383 3.07174 1.22909 2.45451 1.84184 1.84623C2.45459 1.23348 3.06734 0.857778 3.79191 0.576001C4.48965 0.303169 5.29025 0.115318 6.46656 0.0661184C7.46479 0.020398 7.8853 0.00388844 9.83485 0H12.1688ZM11.3134 1.98045H10.6813C8.03187 1.98114 7.66705 1.99135 6.55154 2.04303C5.47811 2.09223 4.89666 2.27114 4.50754 2.42321C3.99318 2.62448 3.62643 2.86153 3.24178 3.24617C2.85713 3.63082 2.62008 3.99758 2.41881 4.51193C2.26674 4.90105 2.08783 5.4825 2.03863 6.55594C1.98944 7.71435 1.97602 8.06322 1.97602 11.0018C1.97602 13.9403 1.98496 14.2892 2.03863 15.4476C2.08783 16.521 2.26674 17.1024 2.41881 17.4916C2.62008 18.0059 2.85713 18.3727 3.24178 18.7573C3.62643 19.142 3.99318 19.379 4.50754 19.5803C4.89666 19.7324 5.47811 19.9113 6.55154 19.9605C7.70996 20.0097 8.05883 20.0231 10.9974 20.0231L11.3134 20.0231C13.9628 20.0224 14.3277 20.0122 15.4432 19.9605C16.5166 19.9113 17.0981 19.7324 17.4872 19.5803C18.0015 19.379 18.3683 19.142 18.7529 18.7573C19.1376 18.3727 19.3746 18.0059 19.5759 17.4916C19.728 17.1024 19.9069 16.521 19.9561 15.4476C20.0053 14.2892 20.0187 13.9403 20.0187 11.0018L20.0187 10.6857C20.018 8.03627 20.0078 7.67145 19.9561 6.55594C19.9069 5.4825 19.728 4.90105 19.5759 4.51193C19.3746 3.99758 19.1376 3.63082 18.7529 3.24617C18.3683 2.86153 18.0015 2.62448 17.4872 2.42321C17.0981 2.27114 16.5166 2.09223 15.4432 2.04303C14.2848 1.98936 13.9359 1.98041 10.9974 1.98041L11.3134 1.98045ZM10.9974 5.35279C14.1193 5.35279 16.6463 7.88431 16.6463 11.0018C16.6463 14.1192 14.1148 16.6507 10.9974 16.6507C7.87992 16.6507 5.3484 14.1237 5.3484 11.0018C5.3484 7.87984 7.87545 5.35279 10.9974 5.35279ZM10.9974 7.33418C8.97125 7.33418 7.32978 8.97564 7.32978 11.0018C7.32978 13.0279 8.97125 14.6693 10.9974 14.6693C13.0235 14.6693 14.6649 13.0279 14.6649 11.0018C14.6649 8.97564 13.0235 7.33418 10.9974 7.33418ZM16.8744 3.80973C17.6031 3.80973 18.1939 4.40046 18.1939 5.12916C18.1939 5.85786 17.6031 6.44859 16.8744 6.44859C16.1457 6.44859 15.555 5.85786 15.555 5.12916C15.555 4.40046 16.1457 3.80973 16.8744 3.80973Z" fill="white"/>
</svg>
