<svg width="22" height="22" viewBox="0 0 22 22" fill="none" xmlns="http://www.w3.org/2000/svg">
  <path d="M12.1732 0C14.1227 0.00388845 14.5433 0.0203981 15.5415 0.0661186C16.7133 0.119791 17.5139 0.30317 18.2117 0.576002C18.9362 0.85778 19.549 1.23348 20.1617 1.84624C20.77 2.45452 21.1457 3.07175 21.4275 3.79185C21.6959 4.48958 21.8837 5.29019 21.9374 6.46203C21.9871 7.54706 22.0023 7.94954 22.0042 10.375V11.6196C22.0023 14.0451 21.9871 14.4476 21.9374 15.5326C21.8837 16.7044 21.7003 17.505 21.4275 18.2028C21.1457 18.9273 20.77 19.5401 20.1573 20.1529C19.5445 20.7656 18.9318 21.1413 18.2072 21.4231C17.5095 21.6914 16.7089 21.8793 15.537 21.933C14.3652 21.9866 13.9895 22.0001 11.0018 22.0001L10.6804 22C7.9851 21.999 7.59491 21.9847 6.46648 21.933C5.29465 21.8793 4.49404 21.6959 3.79631 21.4231C3.07174 21.1413 2.45899 20.7656 1.84623 20.1529C1.23348 19.5401 0.857778 18.9273 0.576001 18.2028C0.307642 17.505 0.119786 16.7044 0.0661142 15.5326C0.0203938 14.5344 0.00388844 14.1138 0 12.1643V9.83033C0.00388844 7.88078 0.0203938 7.46026 0.0661142 6.46203C0.119786 5.29019 0.303169 4.48958 0.576001 3.79185C0.857778 3.07175 1.23348 2.45452 1.84623 1.84624C2.45899 1.23348 3.07174 0.85778 3.79631 0.576002C4.49404 0.30317 5.29465 0.115318 6.47095 0.0661186C7.46918 0.0203981 7.8897 0.00388845 9.83925 0H12.1732ZM11.3178 1.98046H10.6857C8.03627 1.98114 7.67145 1.99135 6.55594 2.04304C5.4825 2.09224 4.90105 2.27114 4.51193 2.42321C3.99758 2.62448 3.63082 2.86153 3.24617 3.24618C2.86152 3.63083 2.62447 3.99759 2.4232 4.51195C2.27113 4.90107 2.09223 5.48251 2.04303 6.55595C1.99383 7.71437 1.98041 8.06324 1.98041 11.0018C1.98041 13.9403 1.98936 14.2892 2.04303 15.4476C2.09223 16.521 2.27113 17.1025 2.4232 17.4916C2.62447 18.006 2.86152 18.3727 3.24617 18.7574C3.63082 19.142 3.99758 19.3791 4.51193 19.5804C4.90105 19.7324 5.4825 19.9113 6.55594 19.9605C7.71435 20.0097 8.06322 20.0231 11.0018 20.0231L11.3178 20.0231C13.9672 20.0224 14.3321 20.0122 15.4476 19.9605C16.521 19.9113 17.1024 19.7324 17.4916 19.5804C18.0059 19.3791 18.3727 19.142 18.7573 18.7574C19.142 18.3727 19.379 18.006 19.5803 17.4916C19.7324 17.1025 19.9113 16.521 19.9605 15.4476C20.0097 14.2892 20.0231 13.9403 20.0231 11.0018L20.0231 10.6858C20.0224 8.03629 20.0122 7.67147 19.9605 6.55595C19.9113 5.48251 19.7324 4.90107 19.5803 4.51195C19.379 3.99759 19.142 3.63083 18.7573 3.24618C18.3727 2.86153 18.0059 2.62448 17.4916 2.42321C17.1024 2.27114 16.521 2.09224 15.4476 2.04304C14.2892 1.98936 13.9403 1.98042 11.0018 1.98042L11.3178 1.98046ZM11.0018 5.35281C14.1237 5.35281 16.6507 7.88434 16.6507 11.0018C16.6507 14.1192 14.1192 16.6508 11.0018 16.6508C7.88432 16.6508 5.35279 14.1237 5.35279 11.0018C5.35279 7.87986 7.87984 5.35281 11.0018 5.35281ZM11.0018 7.3342C8.97564 7.3342 7.33417 8.97567 7.33417 11.0018C7.33417 13.0279 8.97564 14.6694 11.0018 14.6694C13.0279 14.6694 14.6693 13.0279 14.6693 11.0018C14.6693 8.97567 13.0279 7.3342 11.0018 7.3342ZM16.8788 3.80974C17.6075 3.80974 18.1982 4.40047 18.1982 5.12917C18.1982 5.85788 17.6075 6.44861 16.8788 6.44861C16.1501 6.44861 15.5594 5.85788 15.5594 5.12917C15.5594 4.40047 16.1501 3.80974 16.8788 3.80974Z" fill="black" />
</svg>