<svg width="130" height="30" viewBox="0 0 130 30" fill="none" xmlns="http://www.w3.org/2000/svg">
<rect width="130" height="30" fill="#D9D9D9"/>
<path d="M49.0066 21V10.0789H50.7019V19.5393H55.7878V21H49.0066ZM60.1133 21.1589C57.8277 21.1589 56.3367 19.5771 56.3367 17.019V17.0039C56.3367 14.4609 57.8428 12.8867 60.1057 12.8867C62.3762 12.8867 63.8899 14.4534 63.8899 17.0039V17.019C63.8899 19.5847 62.3914 21.1589 60.1133 21.1589ZM60.1209 19.7891C61.3999 19.7891 62.2173 18.7749 62.2173 17.019V17.0039C62.2173 15.2632 61.3848 14.2566 60.1057 14.2566C58.8494 14.2566 58.0093 15.2632 58.0093 17.0039V17.019C58.0093 18.7825 58.8418 19.7891 60.1209 19.7891ZM68.4879 23.8079C66.4444 23.8079 65.1502 22.8618 64.908 21.6433L64.9004 21.5752H66.5201L66.5504 21.6357C66.7698 22.1428 67.4586 22.491 68.4803 22.491C69.782 22.491 70.501 21.7947 70.501 20.6821V19.5923H70.4632C70.0091 20.4551 69.1009 21.0076 67.9581 21.0076C65.96 21.0076 64.6431 19.4409 64.6431 16.9585V16.9509C64.6431 14.4534 65.9752 12.8867 67.9959 12.8867C69.116 12.8867 69.994 13.4922 70.4632 14.3928H70.501V13.0381H72.1434V20.7805C72.1434 22.5969 70.7357 23.8079 68.4879 23.8079ZM68.4197 19.6755C69.6685 19.6755 70.501 18.6235 70.501 16.9812V16.9736C70.501 15.3389 69.6609 14.2869 68.4197 14.2869C67.1255 14.2869 66.3157 15.3313 66.3157 16.9736V16.9812C66.3157 18.6462 67.1255 19.6755 68.4197 19.6755ZM77.0289 21.1589C74.7433 21.1589 73.2523 19.5771 73.2523 17.019V17.0039C73.2523 14.4609 74.7584 12.8867 77.0213 12.8867C79.2918 12.8867 80.8055 14.4534 80.8055 17.0039V17.019C80.8055 19.5847 79.307 21.1589 77.0289 21.1589ZM77.0365 19.7891C78.3155 19.7891 79.1329 18.7749 79.1329 17.019V17.0039C79.1329 15.2632 78.3004 14.2566 77.0213 14.2566C75.765 14.2566 74.9249 15.2632 74.9249 17.0039V17.019C74.9249 18.7825 75.7574 19.7891 77.0365 19.7891Z" fill="black"/>
</svg>
