<svg width="66" height="66" viewBox="0 0 66 66" fill="none" xmlns="http://www.w3.org/2000/svg">
<path d="M41.1818 51V47C41.1818 44.8783 40.3198 42.8434 38.7854 41.3431C37.251 39.8429 35.17 39 33 39H18.6818C16.5119 39 14.4308 39.8429 12.8964 41.3431C11.362 42.8434 10.5 44.8783 10.5 47V51" stroke="black" stroke-width="3" stroke-linecap="round" stroke-linejoin="round"/>
<path d="M25.841 31C30.3597 31 34.0228 27.4183 34.0228 23C34.0228 18.5817 30.3597 15 25.841 15C21.3223 15 17.6592 18.5817 17.6592 23C17.6592 27.4183 21.3223 31 25.841 31Z" stroke="black" stroke-width="3" stroke-linecap="round" stroke-linejoin="round"/>
<path d="M43.2271 31L47.318 35L55.4998 27" stroke="black" stroke-width="3" stroke-linecap="round" stroke-linejoin="round"/>
</svg>
