<svg width="25" height="24" viewBox="0 0 25 24" fill="none" xmlns="http://www.w3.org/2000/svg">
<path d="M7.33317 5.51743L5.42522 7.42538C5.25165 7.59895 4.97025 7.59895 4.79668 7.42538C4.62311 7.25181 4.62311 6.97041 4.79668 6.79684L7.46335 4.13017C7.63691 3.95661 7.91832 3.95661 8.09188 4.13017L10.7586 6.79684C10.9321 6.97041 10.9321 7.25181 10.7586 7.42538C10.585 7.59895 10.3036 7.59895 10.13 7.42538L8.22206 5.51743V18.4826L10.13 16.5746C10.3036 16.4011 10.585 16.4011 10.7586 16.5746C10.9321 16.7482 10.9321 17.0296 10.7586 17.2032L8.09188 19.8698C7.91832 20.0434 7.63691 20.0434 7.46335 19.8698L4.79668 17.2032C4.62311 17.0296 4.62311 16.7482 4.79668 16.5746C4.97025 16.4011 5.25165 16.4011 5.42522 16.5746L7.33317 18.4826V5.51743ZM18.4443 4C19.6716 4 20.6665 4.99492 20.6665 6.22222V17.7778C20.6665 19.0051 19.6716 20 18.4443 20H15.7776C14.5503 20 13.5554 19.0051 13.5554 17.7778V6.22222C13.5554 4.99492 14.5503 4 15.7776 4H18.4443ZM18.4443 4.88889H15.7776C15.0412 4.88889 14.4443 5.48584 14.4443 6.22222V17.7778C14.4443 18.5142 15.0412 19.1111 15.7776 19.1111H18.4443C19.1807 19.1111 19.7776 18.5142 19.7776 17.7778V6.22222C19.7776 5.48584 19.1807 4.88889 18.4443 4.88889Z" fill="#FB0007"/>
</svg>
