<svg width="30" height="30" viewBox="0 0 30 30" fill="none" xmlns="http://www.w3.org/2000/svg">
<rect width="30" height="30" rx="4" fill="#F9F9F9"/>
<path fill-rule="evenodd" clip-rule="evenodd" d="M19.9601 10.0344C18.6442 8.72315 16.8941 8.00067 15.0294 8C11.187 8 8.05983 11.1118 8.05849 14.9368C8.05782 16.1596 8.37903 17.3531 8.98902 18.4049L8 22L11.6954 21.0353C12.7135 21.5882 13.8599 21.8792 15.0264 21.8796H15.0294C18.8712 21.8796 21.9987 18.7674 22 14.9424C22.0007 13.0887 21.2764 11.346 19.9601 10.0347V10.0344ZM15.0294 20.708H15.0271C13.9876 20.7077 12.9678 20.4296 12.0781 19.9044L11.8665 19.7793L9.67354 20.3518L10.2588 18.2239L10.1211 18.0057C9.54118 17.0876 9.23468 16.0265 9.23535 14.9371C9.23669 11.7581 11.8357 9.17154 15.0318 9.17154C16.5793 9.17221 18.0339 9.77262 19.1279 10.8627C20.2218 11.9524 20.8238 13.4014 20.8231 14.9418C20.8218 18.1211 18.2228 20.7077 15.0294 20.7077V20.708ZM18.2074 16.3898C18.0332 16.3029 17.1769 15.8838 17.0171 15.8259C16.8574 15.768 16.7414 15.7391 16.6254 15.9128C16.5094 16.0864 16.1755 16.4769 16.0739 16.5923C15.9723 16.7081 15.8707 16.7224 15.6965 16.6356C15.5224 16.5487 14.9612 16.3658 14.2958 15.7754C13.778 15.3157 13.4284 14.7482 13.3268 14.5745C13.2252 14.4009 13.3161 14.3071 13.403 14.221C13.4812 14.1431 13.5771 14.0184 13.6644 13.9173C13.7516 13.8161 13.7804 13.7436 13.8385 13.6282C13.8967 13.5124 13.8676 13.4113 13.8242 13.3245C13.7807 13.2377 13.4324 12.3845 13.287 12.0375C13.1456 11.6996 13.0019 11.7455 12.8953 11.7398C12.7937 11.7348 12.6777 11.7338 12.5614 11.7338C12.4451 11.7338 12.2565 11.7771 12.0968 11.9507C11.937 12.1243 11.4871 12.5438 11.4871 13.3967C11.4871 14.2496 12.1112 15.0742 12.1984 15.19C12.2856 15.3057 13.4267 17.0564 15.1738 17.8075C15.5893 17.9861 15.9138 18.0929 16.1668 18.1727C16.584 18.3047 16.9637 18.2861 17.2638 18.2415C17.5984 18.1917 18.2943 17.8221 18.4393 17.4173C18.5844 17.0124 18.5844 16.6652 18.541 16.593C18.4975 16.5208 18.3812 16.4772 18.2071 16.3904L18.2074 16.3898Z" fill="#ADAFB1"/>
</svg>
