<svg width="22" height="22" viewBox="0 0 22 22" fill="none" xmlns="http://www.w3.org/2000/svg">
<path fill-rule="evenodd" clip-rule="evenodd" d="M18.7901 3.19692C16.7223 1.13638 13.9721 0.00104543 11.0418 0C5.00372 0 0.0896225 4.89 0.0875215 10.9007C0.086471 12.8222 0.591222 14.6977 1.54978 16.3505L-0.00439453 22L5.8026 20.4841C7.40246 21.3529 9.20401 21.8102 11.0371 21.8108H11.0418C17.0788 21.8108 21.9935 16.9203 21.9956 10.9096C21.9966 7.99651 20.8584 5.25799 18.7901 3.19744V3.19692ZM11.0418 19.9698H11.0381C9.40464 19.9693 7.80218 19.5323 6.40402 18.7069L6.07153 18.5104L2.62546 19.41L3.54515 16.0661L3.32875 15.7232C2.41746 14.2806 1.93582 12.6131 1.93687 10.9012C1.93898 5.90563 6.0232 1.841 11.0455 1.841C13.4773 1.84204 15.7632 2.78555 17.4822 4.49848C19.2014 6.2109 20.1473 8.48786 20.1463 10.9085C20.1441 15.9047 16.0599 19.9693 11.0418 19.9693V19.9698ZM16.0357 13.1839C15.7621 13.0475 14.4165 12.3888 14.1654 12.2979C13.9143 12.2069 13.7321 12.1615 13.5498 12.4343C13.3676 12.7072 12.8429 13.3209 12.6832 13.5022C12.5235 13.6841 12.3638 13.7066 12.0902 13.5702C11.8166 13.4337 10.9347 13.1463 9.88894 12.2184C9.07537 11.496 8.52592 10.6043 8.3663 10.3314C8.20662 10.0586 8.34949 9.91118 8.48602 9.7758C8.60891 9.65349 8.75967 9.45748 8.89674 9.29856C9.03388 9.13964 9.07904 9.02573 9.1704 8.84431C9.26182 8.66241 9.21611 8.50355 9.14785 8.36707C9.07953 8.23066 8.53228 6.88987 8.30378 6.3447C8.08158 5.81363 7.85578 5.88577 7.68821 5.87688C7.52853 5.86904 7.34629 5.86747 7.16351 5.86747C6.98073 5.86747 6.68446 5.93543 6.43342 6.20828C6.18237 6.48111 5.47538 7.14026 5.47538 8.4805C5.47538 9.82074 6.45603 11.1166 6.5931 11.2985C6.73017 11.4804 8.52329 14.2314 11.2687 15.4117C11.9216 15.6924 12.4316 15.8602 12.8292 15.9857C13.4847 16.1932 14.0814 16.1639 14.553 16.0939C15.0788 16.0155 16.1723 15.4347 16.4003 14.7986C16.6282 14.1624 16.6282 13.6167 16.56 13.5033C16.4917 13.3898 16.3089 13.3214 16.0353 13.1849L16.0357 13.1839Z" fill="white"/>
</svg>
