<svg width="22" height="22" viewBox="0 0 22 22" fill="none" xmlns="http://www.w3.org/2000/svg">
  <path fill-rule="evenodd" clip-rule="evenodd" d="M18.7945 3.19693C16.7267 1.13638 13.9765 0.00104543 11.0462 0C5.00812 0 0.094017 4.89001 0.091916 10.9007C0.0908655 12.8222 0.595617 14.6977 1.55417 16.3506L0 22.0001L5.807 20.4842C7.40685 21.353 9.20841 21.8103 11.0415 21.8109H11.0462C17.0832 21.8109 21.9979 16.9203 22 10.9096C22.001 7.99653 20.8628 5.258 18.7945 3.19745V3.19693ZM11.0462 19.9698H11.0425C9.40903 19.9694 7.80658 19.5323 6.40842 18.7069L6.07592 18.5104L2.62986 19.41L3.54954 16.0662L3.33314 15.7233C2.42186 14.2806 1.94022 12.6131 1.94127 10.9013C1.94337 5.90565 6.0276 1.841 11.0499 1.841C13.4817 1.84205 15.7676 2.78556 17.4866 4.4985C19.2058 6.21092 20.1517 8.48788 20.1507 10.9086C20.1485 15.9047 16.0643 19.9694 11.0462 19.9694V19.9698ZM16.0401 13.1839C15.7665 13.0475 14.4209 12.3889 14.1698 12.2979C13.9187 12.207 13.7365 12.1615 13.5542 12.4344C13.372 12.7073 12.8473 13.3209 12.6876 13.5023C12.5279 13.6842 12.3682 13.7067 12.0946 13.5702C11.821 13.4338 10.9391 13.1463 9.89334 12.2185C9.07977 11.4961 8.53032 10.6044 8.3707 10.3315C8.21101 10.0586 8.35389 9.91121 8.49041 9.77583C8.61331 9.65352 8.76407 9.4575 8.90114 9.29859C9.03827 9.13967 9.08343 9.02576 9.17479 8.84434C9.26622 8.66243 9.22051 8.50357 9.15224 8.3671C9.08392 8.23068 8.53667 6.88989 8.30818 6.34472C8.08598 5.81365 7.86017 5.88578 7.69261 5.8769C7.53292 5.86905 7.35069 5.86749 7.16791 5.86749C6.98512 5.86749 6.68886 5.93544 6.43781 6.2083C6.18677 6.48113 5.47978 7.14028 5.47978 8.48052C5.47978 9.82077 6.46042 11.1166 6.59749 11.2985C6.73457 11.4804 8.52769 14.2315 11.2731 15.4118C11.926 15.6924 12.436 15.8602 12.8336 15.9857C13.4891 16.1932 14.0857 16.164 14.5574 16.0939C15.0832 16.0155 16.1767 15.4348 16.4047 14.7986C16.6326 14.1624 16.6326 13.6167 16.5644 13.5033C16.4961 13.3899 16.3133 13.3214 16.0396 13.185L16.0401 13.1839Z" fill="black" />
</svg>